<svg width="34" height="34" viewBox="0 0 34 34" fill="none" xmlns="http://www.w3.org/2000/svg">
<path d="M27.0624 13.0894L27.6351 13.2983C29.4683 13.9649 30.414 15.9914 29.7474 17.8246C29.5904 18.2564 29.3506 18.6534 29.0415 18.9934L28.8096 19.2486C26.616 21.6615 24.0667 23.7253 21.2499 25.3684L17.0713 27.8059C17.0272 27.8317 16.9726 27.8317 16.9285 27.8059L12.7499 25.3684C9.93307 23.7253 7.38377 21.6615 5.19017 19.2486L4.95821 18.9934C3.64607 17.5501 3.75244 15.3163 5.1958 14.0041C5.53578 13.6951 5.93281 13.4553 6.36462 13.2983L6.93813 13.0877M12.3165 21.6028L7.78782 15.5648C6.37949 13.6871 6.76005 11.0231 8.63782 9.61482C9.00326 9.34074 9.41049 9.12737 9.84385 8.98291L10.6249 8.72257C11.1646 8.54265 11.7101 8.3862 12.2598 8.25322L12.5179 8.19246C12.0555 9.0461 11.9206 10.0702 12.2035 11.0601M12.2035 11.0601L14.8087 20.1791M12.2035 11.0601C11.6989 9.29403 12.5237 7.41899 14.1665 6.59757C15.9502 5.70576 18.0496 5.70576 19.8332 6.59757C21.4761 7.41899 22.3009 9.29403 21.7963 11.0601M19.1905 20.1789L21.7963 11.0601M21.7963 11.0601C22.079 10.0708 21.9444 9.04725 21.4826 8.1939C22.1194 8.33798 22.751 8.51459 23.3749 8.72257L24.1559 8.98291C26.3827 9.72517 27.5861 12.132 26.8438 14.3588C26.6994 14.7921 26.486 15.1994 26.2119 15.5648L21.6825 21.6021" stroke="#FFF7F7" stroke-width="1.94954" stroke-linecap="round"/>
<path fill-rule="evenodd" clip-rule="evenodd" d="M24.083 23.5081L24.0833 26.2086C24.0833 27.3822 23.1319 28.3336 21.9583 28.3336H12.0416C10.868 28.3336 9.91663 27.3822 9.91663 26.2086L9.91528 23.5068C10.8254 24.1761 11.7716 24.7975 12.75 25.3683L16.9286 27.8058C16.9727 27.8315 17.0272 27.8315 17.0713 27.8058L21.25 25.3683C22.2278 24.7979 23.1733 24.1768 24.083 23.5081Z" stroke="#FFF7F7" stroke-width="1.94954" stroke-linecap="round"/>
</svg>
