<svg width="24" height="29" viewBox="0 0 24 29" fill="none" xmlns="http://www.w3.org/2000/svg">
<path d="M16.2499 4.66634L16.0318 4.73904C13.624 5.54164 11.9999 7.79495 11.9999 10.333V6.73384C11.9999 4.70795 10.57 2.96368 8.58343 2.56637L4.9166 1.83301V2.59884C4.9166 4.62474 6.34656 6.369 8.33311 6.76631L11.9999 7.49967M17.4421 8.56033C18.9254 8.45877 20.3766 9.02524 21.3988 10.1049C22.3571 11.1171 22.8977 12.4491 22.9211 13.8351L22.9172 14.1558L22.8807 15.0505C22.8027 16.962 22.4952 18.8564 21.9654 20.693L21.7563 21.3789L21.2361 22.9977C20.5957 24.9909 19.005 26.5346 16.9935 27.1151C16.1394 27.3616 14.9756 27.3085 13.5022 26.9559L13.0926 26.8523C12.3764 26.6616 11.6228 26.6617 10.9066 26.8523C9.23813 27.2964 7.93808 27.384 7.00641 27.1151C4.99486 26.5346 3.40422 24.9909 2.76374 22.9977L2.2436 21.3789C1.58517 19.3298 1.20692 17.201 1.11915 15.0505L1.08263 14.1558C1.02142 12.6559 1.56906 11.1949 2.60112 10.1049C3.62332 9.02524 5.07444 8.45877 6.55775 8.56033L7.43339 8.62029C8.69239 8.70649 10.2149 9.63045 12.0009 11.3922C13.654 9.71323 15.0654 8.8 16.2353 8.65248L16.5665 8.62029L17.4421 8.56033Z" stroke="white" stroke-width="1.94954" stroke-linecap="round"/>
</svg>
