<svg width="35" height="35" viewBox="0 0 35 35" fill="none" xmlns="http://www.w3.org/2000/svg">
<path fill-rule="evenodd" clip-rule="evenodd" d="M12.4362 5.72168C15.536 5.72168 18.2781 9.35862 19.9469 13.3505C21.1739 11.3795 22.754 9.91719 24.4779 9.91719C28.3899 9.91719 31.5612 17.4475 31.5612 21.3595C31.5612 25.2715 28.3899 28.4428 24.4779 28.4428C22.5614 28.4428 20.8226 27.6817 19.5475 26.4452C17.8609 28.4965 15.3014 29.805 12.4362 29.805C7.35062 29.805 3.22791 25.6823 3.22791 20.5967C3.22791 19.3022 3.49503 17.7029 3.97716 16.0378L4.19681 15.3209C5.70806 10.6439 8.83007 5.72168 12.4362 5.72168ZM12.4362 29.805C17.5219 29.805 21.6446 25.6823 21.6446 20.5967C21.6446 19.3022 21.3774 17.7029 20.8953 16.0378L20.6757 15.3209C19.1644 10.6439 16.0424 5.72168 12.4362 5.72168C8.83007 5.72168 5.70806 10.6439 4.19681 15.3209L3.97716 16.0378C3.49503 17.7029 3.22791 19.3022 3.22791 20.5967C3.22791 25.6823 7.35062 29.805 12.4362 29.805Z" stroke="white" stroke-width="1.94954" stroke-linecap="round"/>
</svg>
