<svg width="34" height="34" viewBox="0 0 34 34" fill="none" xmlns="http://www.w3.org/2000/svg">
<path fill-rule="evenodd" clip-rule="evenodd" d="M11.844 13.2854C18.4163 9.18599 27.0674 11.1907 31.1668 17.763L30.843 18.2586C30.0636 19.3979 29.1197 20.417 28.0411 21.2819C22.5278 25.7034 14.6966 25.2831 9.68601 20.586C8.88265 22.6573 6.79802 24.0549 4.4653 23.8857L4.25012 23.8655V23.5005C4.25012 21.3121 5.20818 19.3132 6.76054 17.9454C5.31741 16.8257 4.367 15.112 4.26018 13.1851L4.25012 12.8214V11.6604L4.54376 11.6722C6.74974 11.8152 8.63849 13.1676 9.53009 15.0911C10.2332 14.412 11.0094 13.806 11.844 13.2854ZM19.8862 24.353L20.0726 24.3439C19.0398 25.3724 17.7738 26.1535 16.333 26.5766C15.2135 26.9052 14.0868 26.9888 13.0003 26.8574C13.5308 25.7798 13.9423 24.6278 14.2214 23.4275C16.0273 24.1237 17.9596 24.4366 19.8862 24.353ZM21.2689 11.1049L21.4156 11.3256C18.6394 10.8939 15.7229 11.29 13.0629 12.6057C12.25 10.8881 11.1596 9.39088 9.87539 8.16734C10.4295 7.85929 11.0229 7.60769 11.6493 7.42378C15.3465 6.33829 19.1226 7.92567 21.2689 11.1049Z" stroke="white" stroke-width="1.94954" stroke-linecap="round"/>
<path fill-rule="evenodd" clip-rule="evenodd" d="M24.7916 16.4337V16.292V16.4337Z" stroke="white" stroke-width="2.92431" stroke-linecap="round" stroke-linejoin="round"/>
</svg>
