<svg width="34" height="34" viewBox="0 0 34 34" fill="none" xmlns="http://www.w3.org/2000/svg">
<path d="M11.9557 26.2943C11.5711 25.9097 11.3333 25.3785 11.3333 24.7917C11.3333 23.6181 12.2847 22.6667 13.4583 22.6667C14.0451 22.6667 14.5763 22.9045 14.9609 23.2891M17.1215 21.1285C16.6088 20.6157 16.2916 19.9074 16.2916 19.125C16.2916 17.5602 17.5602 16.2917 19.125 16.2917C19.9074 16.2917 20.6157 16.6088 21.1284 17.1215M22.5807 14.9609C22.1961 14.5764 21.9583 14.0451 21.9583 13.4583C21.9583 12.2847 22.9097 11.3333 24.0833 11.3333C24.6701 11.3333 25.2013 11.5712 25.5859 11.9557M28.3333 13.0294C28.3333 14.625 27.5359 16.1149 26.2083 17C24.8807 17.8851 24.0833 19.375 24.0833 20.9706V21.25C24.0833 22.9152 22.95 24.3667 21.3346 24.7705L20.8943 24.8806C19.3 25.2792 17.9115 26.2576 17 27.625C16.1149 28.9526 14.6249 29.75 13.0294 29.75H7.08329C7.99037 28.8429 8.49996 27.6127 8.49996 26.3299V25.2206C8.49996 23.625 9.29738 22.1351 10.625 21.25C11.9923 20.3384 12.9708 18.9499 13.3694 17.3557L13.6512 16.2282C13.9541 15.0166 15.0427 14.1667 16.2916 14.1667C17.594 14.1667 18.7845 13.4309 19.367 12.266L19.9829 11.0342C20.7594 9.48108 22.3468 8.5 24.0833 8.5H24.9132C26.196 8.5 27.4262 7.99041 28.3333 7.08333V13.0294ZM7.79163 15.5833C8.96523 15.5833 9.91663 14.6319 9.91663 13.4583C9.91663 12.2847 8.96523 11.3333 7.79163 11.3333C6.61802 11.3333 5.66663 12.2847 5.66663 13.4583C5.66663 14.6319 6.61802 15.5833 7.79163 15.5833ZM7.79163 8.5C8.96523 8.5 9.91663 7.54861 9.91663 6.375C9.91663 5.20139 8.96523 4.25 7.79163 4.25C6.61802 4.25 5.66663 5.20139 5.66663 6.375C5.66663 7.54861 6.61802 8.5 7.79163 8.5ZM14.875 9.91667C16.0486 9.91667 17 8.96527 17 7.79167C17 6.61806 16.0486 5.66667 14.875 5.66667C13.7014 5.66667 12.75 6.61806 12.75 7.79167C12.75 8.96527 13.7014 9.91667 14.875 9.91667Z" stroke="white" stroke-width="1.94954" stroke-linecap="round"/>
</svg>
