<svg width="35" height="35" viewBox="0 0 35 35" fill="none" xmlns="http://www.w3.org/2000/svg">
<path fill-rule="evenodd" clip-rule="evenodd" d="M5.3219 29.1639L21.9615 12.5242L5.3219 29.1639ZM13.0317 13.1506C15.3246 14.8704 15.7893 18.1233 14.0696 20.4162C13.8483 20.7113 13.5964 20.9816 13.3183 21.2228L13.0317 21.4541C10.7387 19.7344 10.274 16.4815 11.9937 14.1885C12.215 13.8935 12.4669 13.6232 12.745 13.382L13.0317 13.1506ZM17.1834 8.99889C19.4763 10.7186 19.941 13.9715 18.2213 16.2645C18 16.5595 17.7481 16.8298 17.47 17.0711L17.1834 17.3024C14.8904 15.5827 14.4257 12.3297 16.1455 10.0368C16.3667 9.74175 16.6186 9.47142 16.8967 9.23022L17.1834 8.99889ZM21.3351 4.84715C23.628 6.56687 24.0927 9.81978 22.373 12.1127C22.1517 12.4078 21.8998 12.6781 21.6217 12.9193L21.3351 13.1506C19.0421 11.4309 18.5774 8.178 20.2972 5.88506C20.5184 5.59001 20.7703 5.31968 21.0484 5.07847L21.3351 4.84715ZM29.6385 13.1506C27.9188 15.4436 24.6659 15.9083 22.373 14.1886C22.078 13.9673 21.8076 13.7154 21.5664 13.4373L21.3351 13.1506C23.0547 10.8577 26.3076 10.393 28.6005 12.1127C28.8956 12.334 29.1659 12.5859 29.4071 12.864L29.6385 13.1506ZM25.4868 17.3024C23.7671 19.5953 20.5142 20.06 18.2213 18.3403C17.9263 18.119 17.6559 17.8671 17.4147 17.589L17.1834 17.3024C18.903 15.0095 22.1559 14.5447 24.4488 16.2644C24.7439 16.4857 25.0142 16.7376 25.2554 17.0157L25.4868 17.3024ZM21.3351 21.4541C19.6154 23.747 16.3625 24.2118 14.0696 22.4921C13.7745 22.2708 13.5042 22.0189 13.263 21.7408L13.0317 21.4541C14.7513 19.1612 18.0042 18.6965 20.2971 20.4162C20.5922 20.6375 20.8625 20.8894 21.1037 21.1675L21.3351 21.4541ZM8.78166 17.4006C11.0746 19.1204 11.5393 22.3733 9.81956 24.6662C9.59828 24.9613 9.34638 25.2316 9.0683 25.4728L8.78166 25.7041C6.48871 23.9844 6.02402 20.7315 7.74375 18.4385C7.96503 18.1435 8.21693 17.8732 8.49501 17.632L8.78166 17.4006ZM17.0851 25.7041C15.3654 27.997 12.1125 28.4618 9.81961 26.7421C9.52455 26.5208 9.2542 26.2689 9.01299 25.9908L8.78166 25.7041C10.5013 23.4112 13.7542 22.9465 16.0471 24.6662C16.3422 24.8875 16.6125 25.1394 16.8537 25.4175L17.0851 25.7041ZM29.7909 4.69571C30.1963 7.53312 28.2247 10.1618 25.3874 10.5672C25.0223 10.6193 24.653 10.6324 24.2858 10.6063L23.9195 10.5671C23.5142 7.72976 25.4857 5.10104 28.3231 4.69571C28.8099 4.62617 29.3041 4.62617 29.7909 4.69571Z" stroke="#FFFDFD" stroke-width="1.94954" stroke-linecap="round"/>
</svg>
