<svg width="37" height="37" viewBox="0 0 37 37" fill="none" xmlns="http://www.w3.org/2000/svg">
<path fill-rule="evenodd" clip-rule="evenodd" d="M13.9177 0.555932C4.50394 2.84496 -1.70617 12.9135 0.416986 22.4453C0.997806 25.0526 1.16714 25.4441 1.60026 25.1766C1.81827 25.0418 1.73132 24.1194 1.39556 23.0036C0.699074 20.6904 0.640824 16.6299 1.27116 14.36C3.53119 6.21985 10.4028 0.815954 18.4944 0.815954C24.3138 0.815954 29.8786 3.74818 33.0086 8.46354C37.1855 14.7557 37.1855 22.2302 33.0086 28.5223C28.9475 34.6401 20.7748 37.6098 13.7442 35.5221C11.7305 34.9243 10.6903 34.958 11.3327 35.6008C11.8133 36.0809 16.4016 36.9937 18.37 36.9999C25.1401 37.0224 31.6773 33.0991 34.8272 27.1224C42.2597 13.0216 29.4717 -3.22626 13.9177 0.555932Z" fill="black"/>
</svg>
